<svg xmlns="http://www.w3.org/2000/svg" width="32" height="32" viewBox="0 0 32 32"><defs><style>.a{fill:#DB413C;}</style></defs><g transform="translate(-461 -319)"><path class="a" d="M477,351a16,16,0,1,1,16-16A16.018,16.018,0,0,1,477,351Zm0-30.815A14.815,14.815,0,1,0,491.815,335,14.832,14.832,0,0,0,477,320.185Z"/><path class="a" d="M485.481,346.556h-1.3V341.37h.648a4.537,4.537,0,1,0-4.537-4.537v1.3H479v-1.3a5.833,5.833,0,1,1,6.481,5.8Z" transform="translate(-7.833 -5.422)"/><path class="a" d="M488.3,359H487v1.3h1.3V359Z" transform="translate(-10.648 -16.382)"/></g></svg>